<?xml version="1.0" encoding="UTF-8" standalone="no"?>
<svg
   width="32"
   height="32"
   viewBox="0 0 24 24"
   version="1.1"
   id="svg1"
   xmlns="http://www.w3.org/2000/svg"
   xmlns:svg="http://www.w3.org/2000/svg">
  <defs
     id="defs1" />
  <g
     id="layer2">
    <path
       id="path1-9"
       style="display:inline;fill:none;stroke:currentColor;stroke-width:2;stroke-linecap:round;stroke-linejoin:round"
       d="M 15.112546,13.159594 H 9.1125461 m 0,0 1.9999999,3 m -1.9999999,-3 1.9999999,-3 M 3,6 v 10.8 c 0,1.12 0,1.68 0.218,2.108 0.1917438,0.376307 0.4976926,0.682256 0.874,0.874 C 4.519,20 5.079,20 6.197,20 h 11.606 c 1.118,0 1.677,0 2.104,-0.218 0.377,-0.192 0.683,-0.498 0.875,-0.874 C 21,18.48 21,17.92 21,16.8 V 9.2 C 21,8.08 21,7.52 20.782,7.092 20.590256,6.7156926 20.284307,6.4097438 19.908,6.218 19.48,6 18.92,6 17.8,6 H 12 M 3,6 h 9 M 3,6 C 3,4.8954305 3.8954305,4 5,4 h 3.675 c 0.489,0 0.734,0 0.964,0.055 0.204,0.05 0.399,0.13 0.578,0.24 0.202,0.124 0.375,0.297 0.72,0.643 L 12,6" />
  </g>
</svg>
